Coordinates
version=1
nRows=17
nColumns=40
inDegrees=yes

Units are S.I. units (second, meters, Newtons, ...)
Angles are in degrees.

endheader
time	pelvis_tilt	pelvis_list	pelvis_rotation	pelvis_tx	pelvis_ty	pelvis_tz	hip_flexion_r	hip_adduction_r	hip_rotation_r	knee_angle_r	knee_angle_r_beta	ankle_angle_r	subtalar_angle_r	mtp_angle_r	hip_flexion_l	hip_adduction_l	hip_rotation_l	knee_angle_l	knee_angle_l_beta	ankle_angle_l	subtalar_angle_l	mtp_angle_l	lumbar_extension	lumbar_bending	lumbar_rotation	arm_flex_r	arm_add_r	arm_rot_r	elbow_flex_r	pro_sup_r	wrist_flex_r	wrist_dev_r	arm_flex_l	arm_add_l	arm_rot_l	elbow_flex_l	pro_sup_l	wrist_flex_l	wrist_dev_l
     37.38142857	    -10.03460047	     -5.77520148	     -3.32330304	      1.09835416	      0.91880489	      0.44448213	     35.89595022	     -0.28744490	     -9.77557042	     20.23096869	     20.23096869	      0.77107294	     -1.42972258	      5.72925376	      8.32931443	     -7.65738139	     -4.45661577	     18.03823447	     18.03823447	     20.19264144	     -8.44376054	      1.53885903	    -11.51491695	      7.15885207	      5.10316734	    -11.72318843	    -13.85992875	     -4.12124963	     28.45194335	     46.34236635	      0.00000000	      0.00000000	     26.59564466	    -20.65506839	     -7.25913964	    105.22141846	     48.71464197	      0.00000000	      0.00000000
     37.39285714	    -10.09107470	     -5.64413882	     -3.26715906	      1.09990150	      0.91651896	      0.44664437	     35.04003157	     -0.03422401	    -10.38021618	     18.05168457	     18.05168457	      0.72653969	     -0.41380309	      6.47963407	      7.61832842	     -7.62509937	     -4.45120315	     17.89172538	     17.89172538	     20.73377809	     -8.37266185	      1.31111876	    -11.22061301	      6.97944155	      5.11241451	    -12.97709396	    -13.55121457	     -3.99996858	     28.34127254	     46.32356808	      0.00000000	      0.00000000	     27.31609590	    -20.58005877	     -7.18716853	    106.38050002	     48.74087312	      0.00000000	      0.00000000
     37.40428571	    -10.10464203	     -5.45807764	     -3.19512618	      1.10155456	      0.91418771	      0.44888751	     34.36053985	      0.08839408	    -11.08020230	     16.75865517	     16.75865517	      0.75581979	      0.50124692	      6.86975324	      6.89985803	     -7.55493153	     -4.48350078	     17.82953738	     17.82953738	     21.31807267	     -8.23281931	      1.07779123	    -10.98532252	      6.74946083	      5.17031086	    -14.20770226	    -13.19410563	     -3.90895818	     28.25398051	     46.30648002	      0.00000000	      0.00000000	     27.87422104	    -20.51746181	     -6.98494594	    107.65823518	     48.76050981	      0.00000000	      0.00000000
     37.41571429	    -10.14846076	     -5.25607258	     -3.14318420	      1.10326536	      0.91171847	      0.45128258	     34.05615354	      0.18410871	    -11.40792557	     16.51034376	     16.51034376	      0.89482704	      0.59755555	      6.88011076	      6.29167918	     -7.47106500	     -4.39226581	     17.92978352	     17.92978352	     21.89880517	     -8.26374327	      0.84896121	    -10.61772668	      6.50741281	      4.86793897	    -15.01963913	    -12.96190040	     -3.88134141	     28.05997598	     46.30447306	      0.00000000	      0.00000000	     28.07479787	    -20.51847958	     -6.94349456	    108.05454981	     48.76798068	      0.00000000	      0.00000000
     37.42714286	    -10.04417176	     -5.16346577	     -3.05602099	      1.10506991	      0.90976986	      0.45372340	     33.39376874	      0.24283299	    -12.47365356	     16.27339151	     16.27339151	      0.84443801	      1.76535741	      6.17415078	      5.59345152	     -7.56219105	     -4.50938540	     18.17175760	     18.17175760	     22.47187214	     -7.93980120	      0.71625775	    -10.62367413	      6.35148173	      5.41022390	    -16.17676213	    -12.55954642	     -3.80067181	     28.26537138	     46.27476183	      0.00000000	      0.00000000	     28.38847872	    -20.15364289	     -6.13414597	    110.36329105	     48.77312067	      0.00000000	      0.00000000
     37.43857143	    -10.03120684	     -5.03415349	     -3.02862201	      1.10670117	      0.90768911	      0.45638768	     33.22232119	      0.29422798	    -12.80386615	     16.97218469	     16.97218469	      0.92639815	      1.73052680	      5.16277695	      5.17959905	     -7.62462707	     -4.45222783	     18.75473674	     18.75473674	     22.96346567	     -8.01941645	      0.56282496	    -10.47352676	      6.20280298	      5.48545959	    -16.77049456	    -12.26006306	     -3.75230582	     28.32469984	     46.26084791	      0.00000000	      0.00000000	     28.48538081	    -20.07855866	     -5.85426223	    111.23623642	     48.77908240	      0.00000000	      0.00000000
     37.45000000	     -9.98639675	     -4.88178517	     -2.95224835	      1.10836265	      0.90588589	      0.45906041	     32.85300640	      0.34552631	    -12.89057484	     17.42110745	     17.42110745	     -0.42354180	      1.03915591	      0.00315042	      4.87447626	     -7.68564196	     -4.37123381	     19.58783549	     19.58783549	     23.47856912	     -8.00125523	      0.60839990	    -10.37001911	      6.00006013	      5.44512365	    -17.22886309	    -11.95243753	     -3.59802966	     28.65632638	     46.22168769	      0.00000000	      0.00000000	     28.19930058	    -20.10130252	     -5.44989207	    112.23851489	     48.80996568	      0.00000000	      0.00000000
     37.46142857	     -9.92302289	     -4.83844914	     -2.90581666	      1.10974925	      0.90449127	      0.46181585	     32.81861748	      0.39980365	    -12.89355198	     18.74955976	     18.74955976	     -0.00186778	      0.56219611	     -0.66214339	      4.76364295	     -7.86400567	     -4.16037390	     20.77027285	     20.77027285	     23.64266435	     -8.44443004	      0.28376744	    -10.34636481	      5.93689023	      5.57810032	    -17.30185374	    -11.73296935	     -3.51942810	     28.44619613	     46.22361036	      0.00000000	      0.00000000	     28.02288963	    -19.73444061	     -5.33786771	    112.65163096	     48.81467218	      0.00000000	      0.00000000
     37.47285714	     -9.86276544	     -4.78729102	     -2.83816510	      1.11098578	      0.90344285	      0.46455785	     32.82736503	      0.41648880	    -12.75894142	     20.17837387	     20.17837387	      0.47132589	     -0.05709081	     -1.41738934	      4.91052926	     -8.05130180	     -3.90677777	     22.37075571	     22.37075571	     23.61117937	     -9.01643538	     -0.16895256	    -10.34986602	      5.87006262	      5.65875129	    -17.11038473	    -11.46933751	     -3.43562527	     28.22725452	     46.22819293	      0.00000000	      0.00000000	     27.56673574	    -19.37507991	     -5.15450579	    113.01357457	     48.81260837	      0.00000000	      0.00000000
     37.48428571	     -9.83123453	     -4.75908186	     -2.74706333	      1.11196129	      0.90273973	      0.46726706	     32.87780179	      0.44337594	    -12.50841136	     21.60288345	     21.60288345	      0.99341393	     -0.81168643	     -2.13091989	      5.37978668	     -8.27950021	     -3.57833260	     24.43546438	     24.43546438	     23.26869361	     -9.76335399	     -0.81325435	    -10.37863162	      5.80790922	      5.67487807	    -16.60337755	    -11.26347487	     -3.34819641	     27.93718407	     46.23892979	      0.00000000	      0.00000000	     26.88218745	    -19.04633403	     -4.99057806	    113.28518539	     48.81024676	      0.00000000	      0.00000000
     37.49571429	     -9.71084669	     -4.80350526	     -2.63962784	      1.11283635	      0.90258728	      0.46994006	     32.75373349	      0.53710792	    -12.26906320	     22.87196477	     22.87196477	      1.62188587	     -1.49796110	     -2.60155755	      5.98595117	     -8.58534575	     -3.22246223	     26.86760391	     26.86760391	     22.62694729	    -10.67928736	     -1.53845654	    -10.53035168	      5.84047473	      5.63231477	    -15.85068499	    -11.16075893	     -3.27526010	     27.67396442	     46.25230433	      0.00000000	      0.00000000	     26.00667673	    -18.70444192	     -4.86225051	    113.31079417	     48.80384637	      0.00000000	      0.00000000
     37.50714286	     -9.56272887	     -4.88316080	     -2.49748201	      1.11351858	      0.90287663	      0.47250157	     32.49379313	      0.65926545	    -12.07369290	     23.91171194	     23.91171194	      2.34654277	     -2.05410210	     -2.84447094	      6.81254195	     -8.92988060	     -2.83259644	     29.66881898	     29.66881898	     21.69254397	    -11.69614805	     -2.24416351	    -10.75706157	      5.91485915	      5.57372343	    -14.89946279	    -11.11254575	     -3.21800325	     27.51081963	     46.26451221	      0.00000000	      0.00000000	     24.98090792	    -18.32239409	     -4.73034339	    113.08314343	     48.79020612	      0.00000000	      0.00000000
     37.51857143	     -9.45175046	     -5.01072548	     -2.30799344	      1.11399333	      0.90342931	      0.47496536	     32.17232966	      0.81961662	    -11.92764324	     24.72454816	     24.72454816	      3.13481743	     -2.48860117	     -2.89681967	      7.93971407	     -9.31326827	     -2.32609879	     32.82074934	     32.82074934	     20.48692427	    -12.84114630	     -2.91893116	    -10.92578287	      6.02814971	      5.47434320	    -13.74960605	    -11.13570078	     -3.17666977	     27.41726812	     46.27689322	      0.00000000	      0.00000000	     23.81568955	    -17.93017270	     -4.61031584	    112.59189274	     48.77085245	      0.00000000	      0.00000000
     37.53000000	     -9.31119673	     -5.12012038	     -2.14366429	      1.11425877	      0.90446747	      0.47737934	     31.76890854	      0.97309902	    -11.84703232	     25.42635543	     25.42635543	      4.30881702	     -2.68423998	     -1.29056186	      9.12228590	     -9.66022368	     -1.92185316	     35.94645138	     35.94645138	     18.25439950	    -14.61244097	     -4.77773792	    -11.12565085	      6.09961707	      4.80500184	    -11.66601409	    -11.14710504	     -2.95239197	     25.97732965	     46.34489892	      0.00000000	      0.00000000	     22.17430743	    -17.60332661	     -5.34500630	    111.96060347	     48.82325217	      0.00000000	      0.00000000
     37.54142857	     -9.09102784	     -5.31992679	     -1.90730580	      1.11443875	      0.90571590	      0.47960180	     31.07482074	      1.17661732	    -12.01554920	     25.71353872	     25.71353872	      4.94010983	     -2.70251321	     -1.39860323	     10.49089484	    -10.16144939	     -1.59269603	     39.50423427	     39.50423427	     16.80551353	    -15.59074764	     -4.76340788	    -11.44970719	      6.25738595	      4.76841113	    -10.43335699	    -11.29594729	     -2.97485292	     26.35699354	     46.34224421	      0.00000000	      0.00000000	     20.89422364	    -17.03666969	     -4.89871908	    111.08542779	     48.77184012	      0.00000000	      0.00000000
     37.55285714	     -9.07480835	     -5.48363195	     -1.65309688	      1.11431410	      0.90684817	      0.48168194	     30.47216615	      1.36305074	    -12.21861493	     25.70908402	     25.70908402	      5.56382415	     -2.63130684	     -1.33690339	     12.27223594	    -10.58586251	     -1.15284685	     43.20507114	     43.20507114	     15.31852913	    -16.67100313	     -4.30703739	    -11.49968809	      6.41937777	      4.57988101	     -9.05007051	    -11.44185261	     -3.01186641	     26.79130013	     46.33930703	      0.00000000	      0.00000000	     19.52349992	    -16.62632649	     -4.64773716	    109.55342707	     48.71977286	      0.00000000	      0.00000000
     37.56428571	     -8.93653163	     -5.68290139	     -1.41730639	      1.11410300	      0.90825380	      0.48368703	     29.67986424	      1.59386630	    -12.50050725	     25.58534112	     25.58534112	      6.09407967	     -2.45430466	     -1.28203244	     13.98313094	    -11.08822856	     -0.85704946	     46.85131475	     46.85131475	     13.95998586	    -17.57760281	     -3.55003451	    -11.68448929	      6.58781129	      4.45602710	     -7.53153270	    -11.66428924	     -3.06229478	     27.30206792	     46.33515523	      0.00000000	      0.00000000	     18.15247204	    -16.07024466	     -4.35162868	    107.91531877	     48.66168314	      0.00000000	      0.00000000
